<svg version="1.1" id="Layer_1" xmlns="http://www.w3.org/2000/svg" xmlns:xlink="http://www.w3.org/1999/xlink" x="0px" y="0px"
	 width="1254" height="1254" viewBox="0 0 1254 1254" enable-background="new 0 0 1254 1254" xml:space="preserve">
<path fill="#FFFFFF" fill-rule="evenodd" opacity="1.000000" stroke="none" d="M211.947342,929.729797 
	C246.759018,929.740479 281.570740,929.768860 316.382202,929.687317 
	C317.594391,929.684509 318.804047,928.585693 320.231934,927.082458 
	C320.231934,837.654663 320.231934,748.226868 320.231934,658.242371 
	C318.522034,658.872986 317.454071,659.192993 316.447601,659.648743 
	C282.034241,675.232178 247.641891,690.862244 213.188049,706.355530 
	C210.562210,707.536316 210.013031,709.038086 210.014984,711.677979 
	C210.067978,783.170959 210.033813,854.664001 210.065125,926.157043 
	C210.065613,927.271790 210.701569,928.386292 211.947342,929.729797 
M435.232666,605.968018 
	C404.160126,620.031250 373.087585,634.094421 341.265076,648.203979 
	C338.318726,648.946716 338.279205,651.150330 338.279968,653.633545 
	C338.307465,744.421326 338.289459,835.209106 338.296631,925.996887 
	C338.296753,927.245911 338.538025,928.494934 338.663788,929.715454 
	C375.386230,929.715454 411.652649,929.715454 448.055573,929.715454 
	C448.055573,819.823975 448.055573,710.177307 448.055573,600.040283 
	C443.672058,602.160278 439.816071,604.025146 435.232666,605.968018 
M501.252289,575.983459 
	C497.501465,577.751770 493.750671,579.520020 489.307678,581.422852 
	C483.231567,584.120239 477.259857,587.099060 471.039246,589.406982 
	C467.447083,590.739685 466.496918,592.587097 466.499817,596.315247 
	C466.585480,706.592896 466.537872,816.870667 466.523071,927.148376 
	C466.522980,927.934692 466.684692,928.721008 466.778351,929.575806 
	C503.427124,929.575806 539.817566,929.575806 576.369019,929.575806 
	C576.369019,800.460999 576.369019,671.642273 576.369019,542.862549 
	C575.724609,542.784241 575.354675,542.616516 575.110840,542.727112 
	C550.728333,553.787354 526.355347,564.868591 501.252289,575.983459 
M158.777557,701.066833 
	C276.609619,647.583374 394.434784,594.084595 512.276245,540.621887 
	C587.449524,506.517029 662.633240,472.434875 737.877319,438.486633 
	C741.372314,436.909760 742.319031,435.056122 742.304626,431.431152 
	C742.179260,399.942200 742.253174,368.452454 742.252075,336.962952 
	C742.252014,335.686462 742.094971,334.409973 741.982849,332.705017 
	C740.278442,333.393524 738.918152,333.897278 737.594971,334.484436 
	C720.250793,342.180878 702.880859,349.820068 685.577087,357.606262 
	C602.494385,394.990997 519.417297,432.388214 436.363525,469.837219 
	C382.784302,493.996155 329.234680,518.221069 275.698242,542.474670 
	C234.786774,561.008850 193.916702,579.634277 152.253220,598.377563 
	C151.872345,600.060303 151.162628,601.742310 151.159241,603.425842 
	C151.094116,635.745972 151.108414,668.066345 151.125916,700.386658 
	C151.126587,701.610535 151.324097,702.834290 151.476395,704.596130 
	C154.017456,703.263489 156.034363,702.205750 158.777557,701.066833 
M858.305603,732.500061 
	C858.317139,655.667297 858.330261,578.834595 858.339600,502.001831 
	C858.344116,464.835815 858.414673,427.669495 858.258972,390.504120 
	C858.236877,385.238617 859.775513,382.371094 864.934875,380.102905 
	C892.978088,367.774384 920.826233,355.000153 948.651978,342.184875 
	C950.093384,341.521027 951.576416,339.074524 951.585083,337.450195 
	C951.745850,307.285034 951.690186,277.118683 951.657227,246.952621 
	C951.655518,245.385056 951.448120,243.817719 951.311707,241.901489 
	C948.349426,243.201782 945.909485,244.215256 943.517456,245.331207 
	C891.443665,269.625183 839.370911,293.921326 787.312805,318.248840 
	C782.340515,320.572449 775.519775,321.907043 773.080261,325.869659 
	C770.517456,330.032684 772.189148,336.805328 772.022156,342.437958 
	C771.992493,343.437012 772.021729,344.437805 772.021667,345.437775 
	C772.008728,534.268433 771.995544,723.099121 771.982422,911.929810 
	C771.982056,917.714844 771.982361,923.499878 771.982361,929.562744 
	C883.226868,929.562744 993.954224,929.562744 1104.852295,929.562744 
	C1104.852295,896.987000 1104.852295,864.750122 1104.852295,831.953796 
	C1022.643127,831.953796 940.751404,831.953796 858.306458,831.953796 
	C858.306458,798.764160 858.306458,766.132141 858.305603,732.500061 
M704.567505,912.496704 
	C704.567505,769.782410 704.567505,627.068115 704.567505,483.885376 
	C668.201233,500.384186 632.697998,516.447449 597.292114,532.722656 
	C595.938293,533.345032 594.780151,536.011658 594.778625,537.726868 
	C594.663330,667.379028 594.673157,797.031250 594.685059,926.683533 
	C594.685120,927.622253 594.848694,928.560974 594.947815,929.627686 
	C631.510620,929.627686 667.755005,929.627686 704.571655,929.627686 
	C704.571655,924.085999 704.571655,918.790039 704.567505,912.496704 
z"/>
<path fill="#FD6003" opacity="1.000000" stroke="none" 
	d="
M858.306030,733.000122 
	C858.306458,766.132141 858.306458,798.764160 858.306458,831.953796 
	C940.751404,831.953796 1022.643127,831.953796 1104.852295,831.953796 
	C1104.852295,864.750122 1104.852295,896.987000 1104.852295,929.562744 
	C993.954224,929.562744 883.226868,929.562744 771.982361,929.562744 
	C771.982361,923.499878 771.982056,917.714844 771.982422,911.929810 
	C771.995544,723.099121 772.008728,534.268433 772.021667,345.437775 
	C772.021729,344.437805 771.992493,343.437012 772.022156,342.437958 
	C772.189148,336.805328 770.517456,330.032684 773.080261,325.869659 
	C775.519775,321.907043 782.340515,320.572449 787.312805,318.248840 
	C839.370911,293.921326 891.443665,269.625183 943.517456,245.331207 
	C945.909485,244.215256 948.349426,243.201782 951.311707,241.901489 
	C951.448120,243.817719 951.655518,245.385056 951.657227,246.952621 
	C951.690186,277.118683 951.745850,307.285034 951.585083,337.450195 
	C951.576416,339.074524 950.093384,341.521027 948.651978,342.184875 
	C920.826233,355.000153 892.978088,367.774384 864.934875,380.102905 
	C859.775513,382.371094 858.236877,385.238617 858.258972,390.504120 
	C858.414673,427.669495 858.344116,464.835815 858.339600,502.001831 
	C858.330261,578.834595 858.317139,655.667297 858.306030,733.000122 
z"/>
<path fill="#FFFFFF" opacity="1.000000" stroke="none" 
	d="
M153.028229,598.219116 
	C193.916702,579.634277 234.786774,561.008850 275.698242,542.474670 
	C329.234680,518.221069 382.784302,493.996155 436.363525,469.837219 
	C519.417297,432.388214 602.494385,394.990997 685.577087,357.606262 
	C702.880859,349.820068 720.250793,342.180878 737.594971,334.484436 
	C738.918152,333.897278 740.278442,333.393524 741.982849,332.705017 
	C742.094971,334.409973 742.252014,335.686462 742.252075,336.962952 
	C742.253174,368.452454 742.179260,399.942200 742.304626,431.431152 
	C742.319031,435.056122 741.372314,436.909760 737.877319,438.486633 
	C662.633240,472.434875 587.449524,506.517029 512.276245,540.621887 
	C394.434784,594.084595 276.609619,647.583374 158.212830,700.860413 
	C154.855103,700.711243 152.101929,700.862427 153.823410,696.545471 
	C154.285675,695.386292 153.968750,693.906799 153.969070,692.574402 
	C153.976120,663.409241 153.998779,634.243958 153.938797,605.078918 
	C153.934097,602.791748 153.345459,600.505676 153.028229,598.219116 
z"/>
<path fill="#FFFFFF" opacity="1.000000" stroke="none" 
	d="
M704.569580,912.995361 
	C704.571655,918.790039 704.571655,924.085999 704.571655,929.627686 
	C667.755005,929.627686 631.510620,929.627686 594.947815,929.627686 
	C594.848694,928.560974 594.685120,927.622253 594.685059,926.683533 
	C594.673157,797.031250 594.663330,667.379028 594.778625,537.726868 
	C594.780151,536.011658 595.938293,533.345032 597.292114,532.722656 
	C632.697998,516.447449 668.201233,500.384186 704.567505,483.885376 
	C704.567505,627.068115 704.567505,769.782410 704.569580,912.995361 
z"/>
<path fill="#FFFFFF" opacity="1.000000" stroke="none" 
	d="
M501.981781,575.948608 
	C526.355347,564.868591 550.728333,553.787354 575.110840,542.727112 
	C575.354675,542.616516 575.724609,542.784241 576.369019,542.862549 
	C576.369019,671.642273 576.369019,800.460999 576.369019,929.575806 
	C539.817566,929.575806 503.427124,929.575806 466.778351,929.575806 
	C466.684692,928.721008 466.522980,927.934692 466.523071,927.148376 
	C466.537872,816.870667 466.585480,706.592896 466.499817,596.315247 
	C466.496918,592.587097 467.447083,590.739685 471.039246,589.406982 
	C477.259857,587.099060 483.231567,584.120239 489.645630,581.699951 
	C487.991211,586.944885 492.657196,587.610535 495.169769,589.147888 
	C495.914337,589.603455 498.475159,587.288025 500.086365,586.085205 
	C502.771576,584.080688 505.423462,582.020874 507.965668,579.840088 
	C509.164551,578.811646 510.076477,577.448669 511.118439,576.237244 
	C510.696625,575.867554 510.274780,575.497803 509.852966,575.128113 
	C508.598663,575.849548 507.392242,577.025696 506.076508,577.164246 
	C504.768768,577.302002 503.351196,576.396606 501.981781,575.948608 
M476.948151,909.644592 
	C475.635132,907.244690 473.230255,904.860107 473.196136,902.442200 
	C473.039368,891.330811 473.610077,880.211060 473.783417,869.092224 
	C473.863403,863.963196 476.360626,858.608276 472.489960,853.756226 
	C472.084625,853.248108 472.142761,852.103333 472.383423,851.387573 
	C475.170135,843.098572 474.968109,834.870972 472.003906,826.688721 
	C469.288147,819.192322 473.676086,812.496704 474.318481,805.382935 
	C474.536469,802.969116 474.579285,800.504456 474.353546,798.095764 
	C474.143921,795.858948 473.064606,793.662903 473.080078,791.453796 
	C473.118225,786.002197 473.940369,780.541626 473.767761,775.106140 
	C473.423676,764.267639 472.292084,753.449036 472.112396,742.611877 
	C471.957245,733.254883 472.708801,723.884644 472.985046,714.518127 
	C473.139709,709.274414 472.986328,704.018250 473.252319,698.781921 
	C473.624146,691.461182 474.276093,684.154846 474.746552,676.838379 
	C474.786041,676.224548 474.352570,675.582764 474.149078,674.950623 
	C469.990295,662.031433 471.856079,649.079346 473.744659,636.078430 
	C474.310944,632.180115 474.865662,627.901306 473.816620,624.260376 
	C472.885193,621.027466 472.537415,618.420776 473.684509,615.308899 
	C474.709686,612.527832 475.350708,609.572815 475.861176,606.642212 
	C476.575348,602.541870 473.918030,600.273254 470.856445,600.744751 
	C470.856445,604.111084 471.094452,607.206787 470.782898,610.246155 
	C470.523102,612.780640 469.083282,615.248108 469.078796,617.746887 
	C468.976593,674.709106 468.961273,731.671692 469.079803,788.633850 
	C469.088501,792.814514 470.363007,796.979492 470.793365,801.178040 
	C470.991364,803.109741 470.674194,805.119141 470.405975,807.067871 
	C470.027069,809.820801 469.046417,812.555664 469.081390,815.288574 
	C469.183411,823.260986 469.870636,831.227234 469.921936,839.198486 
	C469.958069,844.815491 469.093262,850.434753 469.045502,856.056458 
	C468.913910,871.545166 469.030884,887.035767 468.976715,902.525391 
	C468.964935,905.896545 468.819458,909.096069 471.856689,911.607605 
	C472.587311,912.211853 472.281067,914.250000 472.192902,915.611938 
	C472.110748,916.880615 471.684174,918.126953 471.409210,919.383179 
	C471.825867,919.502563 472.242554,919.622009 472.659210,919.741455 
	C474.087921,916.631470 475.516663,913.521423 476.948151,909.644592 
M573.625916,559.475952 
	C572.770203,560.920288 571.914551,562.364685 571.058838,563.809021 
	C570.370605,563.582703 569.682373,563.356384 568.994080,563.130066 
	C567.229492,559.777832 565.464966,556.425537 563.225037,552.170288 
	C559.730591,561.467102 550.857178,554.324707 545.044434,560.014709 
	C548.179688,560.818787 550.189758,561.917725 552.056519,561.712585 
	C560.409302,560.794861 562.516357,561.892517 565.922302,570.076355 
	C564.726074,570.971130 563.468018,571.912170 563.015137,572.250916 
	C563.759155,576.351257 564.374390,579.741943 565.096680,583.722412 
	C567.479553,583.325256 570.473999,582.826172 574.205322,582.204346 
	C573.733948,580.519104 573.180664,578.899780 572.849365,577.236267 
	C572.611877,576.043762 572.113770,574.203857 572.687134,573.660156 
	C577.143921,569.434265 574.729187,564.602844 573.625916,559.475952 
M554.023865,926.997375 
	C557.879517,925.713013 560.216980,921.270935 558.728149,917.790405 
	C556.750977,913.167847 553.556641,916.013062 551.373474,917.178711 
	C547.540833,919.225037 541.813538,919.981384 542.779968,927.001343 
	C546.247253,927.001343 549.689270,927.001343 554.023865,926.997375 
M574.000000,909.619934 
	C573.882935,908.208313 573.765869,906.796631 573.640076,905.279358 
	C571.040466,905.554871 568.842346,905.461914 566.864563,906.077271 
	C564.203979,906.905090 561.713257,908.279175 559.149597,909.418701 
	C561.360657,911.204834 563.501465,913.091248 565.824646,914.717163 
	C566.537842,915.216309 567.845642,914.778931 568.717773,915.152283 
	C573.821838,917.337036 574.383240,914.493530 574.000000,909.619934 
M531.903503,568.438293 
	C530.205627,568.699890 528.514893,569.037109 526.807556,569.198364 
	C525.499878,569.321838 524.130249,569.049805 522.880676,569.344910 
	C522.570007,569.418335 522.194946,571.404663 522.584595,571.816772 
	C523.484802,572.768921 524.760254,573.604309 526.023499,573.911621 
	C527.420654,574.251465 529.005310,574.137634 530.453613,573.895020 
	C536.769287,572.837158 539.328674,568.429688 536.344482,562.408875 
	C534.892151,564.499146 533.688782,566.231079 531.903503,568.438293 
M480.493439,597.999939 
	C481.939758,597.539734 483.386078,597.079468 484.832428,596.619324 
	C483.772614,594.112854 482.712769,591.606445 481.652954,589.099976 
	C481.236938,589.026978 480.820923,588.953979 480.404938,588.880981 
	C479.853333,598.803894 474.198517,592.917480 470.299042,592.468994 
	C470.154816,593.064453 470.010590,593.659912 469.866364,594.255310 
	C473.121796,595.503540 476.377258,596.751770 480.493439,597.999939 
M551.568970,785.999146 
	C546.230469,786.688171 543.926025,789.260864 544.901245,793.443054 
	C549.012329,787.612732 551.955078,787.047791 559.186829,790.397644 
	C560.191406,790.862976 561.597351,790.461914 562.817444,790.461914 
	C562.855713,790.025024 562.893921,789.588135 562.932129,789.151306 
	C559.471619,787.936462 556.998169,783.829346 551.568970,785.999146 
M477.375977,924.833191 
	C478.377533,928.806396 481.433868,926.456909 483.586945,926.715149 
	C483.910522,926.753967 484.413239,925.299622 484.833099,924.536011 
	C483.171814,924.315491 481.515106,924.037292 479.846832,923.904541 
	C479.225952,923.855164 478.578003,924.146240 477.375977,924.833191 
M565.326477,852.708923 
	C566.526062,852.021118 567.725708,851.333374 568.925293,850.645630 
	C568.972229,850.112427 569.019104,849.579224 569.066040,849.046021 
	C567.576477,848.688416 566.086975,848.330811 564.597412,847.973267 
	C564.609863,849.540527 564.622253,851.107788 565.326477,852.708923 
M542.337708,836.100525 
	C543.518005,835.895813 544.698364,835.691162 545.878662,835.486450 
	C544.779480,833.924927 543.680298,832.363403 542.581177,830.801880 
	C542.049805,831.087524 541.518494,831.373230 540.987122,831.658875 
	C541.224426,832.999451 541.461670,834.339966 542.337708,836.100525 
M530.113892,804.505554 
	C533.174072,802.576965 531.711243,800.983154 529.360168,798.568909 
	C528.464417,800.889954 527.797913,802.616760 527.131470,804.343567 
	C527.938660,804.545044 528.745911,804.746582 530.113892,804.505554 
M534.126099,730.291565 
	C533.548645,731.705322 532.971130,733.119141 532.393677,734.532898 
	C533.195312,734.824829 533.996948,735.116699 534.798645,735.408630 
	C534.769836,733.849731 534.741089,732.290894 534.126099,730.291565 
M533.403137,615.363831 
	C533.271423,616.672058 533.139709,617.980286 533.007935,619.288513 
	C533.885315,619.253845 534.762756,619.219116 535.640137,619.184448 
	C535.122803,617.989441 534.605469,616.794373 533.403137,615.363831 
M537.466736,808.847107 
	C538.158020,807.678467 538.849365,806.509827 539.540710,805.341248 
	C538.849487,805.042908 538.158264,804.744568 537.467041,804.446228 
	C537.232727,805.843872 536.998413,807.241516 537.466736,808.847107 
M542.811584,615.357605 
	C542.094727,616.549133 541.377869,617.740662 540.661011,618.932251 
	C541.368469,619.215210 542.075867,619.498108 542.783386,619.781006 
	C543.016602,618.381104 543.249817,616.981262 542.811584,615.357605 
M518.669250,861.675354 
	C517.610779,861.551941 516.552246,861.428528 515.493713,861.305115 
	C515.359192,861.777222 515.224609,862.249329 515.090088,862.721436 
	C516.369507,863.400391 517.648987,864.079346 518.928406,864.758301 
	C518.972046,863.928101 519.015686,863.097961 518.669250,861.675354 
M544.794189,605.753357 
	C545.423279,604.821228 546.052307,603.889099 546.681396,602.956970 
	C545.823425,602.718079 544.965393,602.479126 544.107422,602.240173 
	C544.112915,603.293884 544.118408,604.347656 544.794189,605.753357 
M483.262085,623.398987 
	C482.234070,624.071533 481.206085,624.744141 480.178101,625.416748 
	C480.707458,625.913574 481.236816,626.410400 481.766113,626.907227 
	C482.424957,625.926453 483.083832,624.945679 483.262085,623.398987 
M533.406494,603.117493 
	C532.351624,603.125549 531.296692,603.133545 530.241821,603.141541 
	C530.643433,603.956726 531.045105,604.771973 531.446716,605.587158 
	C532.215515,604.977722 532.984375,604.368286 533.406494,603.117493 
M540.821533,813.675537 
	C541.825928,812.933350 542.830261,812.191223 543.834656,811.449097 
	C543.413879,811.022156 542.993103,810.595215 542.572266,810.168274 
	C541.820007,811.165466 541.067749,812.162720 540.821533,813.675537 
M494.613312,853.182556 
	C493.751068,854.082825 492.888855,854.983093 491.436005,856.500061 
	C495.326691,857.060547 496.838837,856.615601 494.613312,853.182556 
M521.368347,577.006470 
	C520.386536,577.232788 519.404724,577.459167 517.082214,577.994568 
	C519.643982,578.856628 520.971130,579.794739 522.018372,579.547424 
	C523.867493,579.110718 524.896606,577.943420 521.368347,577.006470 
M566.787720,816.509399 
	C565.904480,816.830383 565.021179,817.151367 564.137939,817.472351 
	C564.684998,818.198120 565.232056,818.923950 565.779053,819.649719 
	C566.288147,818.759766 566.797180,817.869812 566.787720,816.509399 
M490.101898,611.184387 
	C490.597260,612.080017 491.092621,612.975647 491.588013,613.871277 
	C492.248901,613.299316 492.909821,612.727295 493.570709,612.155273 
	C492.645538,611.784912 491.720398,611.414612 490.101898,611.184387 
M505.931061,917.182556 
	C504.602539,917.938965 503.273987,918.695312 501.945435,919.451721 
	C502.358795,919.970703 502.772156,920.489746 503.185516,921.008728 
	C504.278473,919.864136 505.371429,918.719543 505.931061,917.182556 
M532.329102,755.348816 
	C531.050110,758.171875 531.050110,758.171875 535.051880,758.367126 
	C534.216003,757.271301 533.582764,756.441101 532.329102,755.348816 
M526.288696,848.912720 
	C526.580811,849.847229 526.872864,850.781677 527.164978,851.716187 
	C527.730469,851.319153 528.295898,850.922180 528.861389,850.525146 
	C528.172546,849.809387 527.483704,849.093628 526.288696,848.912720 
M535.145020,782.317810 
	C534.387146,783.172791 533.629211,784.027710 532.871338,784.882690 
	C533.502625,785.176453 534.133911,785.470154 534.765198,785.763916 
	C535.063965,784.776611 535.362793,783.789307 535.145020,782.317810 
M485.697693,882.021118 
	C486.236084,882.649536 486.774475,883.277893 487.312805,883.906250 
	C487.806183,883.402161 488.299530,882.898071 488.792938,882.393982 
	C487.931610,882.105530 487.070312,881.817017 485.697693,882.021118 
M566.383545,804.371155 
	C566.215027,805.416077 566.046509,806.461060 565.877991,807.505981 
	C566.524902,807.464905 567.171814,807.423828 567.818726,807.382690 
	C567.540894,806.480591 567.263062,805.578430 566.383545,804.371155 
M533.325562,889.678833 
	C533.649719,888.953186 533.973877,888.227600 534.298035,887.501953 
	C533.422607,887.501709 532.547119,887.501465 531.671692,887.501221 
	C531.998169,888.226501 532.324707,888.951782 533.325562,889.678833 
M570.333618,646.643616 
	C570.862915,647.278870 571.392212,647.914124 571.921448,648.549438 
	C572.221985,647.774048 572.522461,646.998657 572.823059,646.223267 
	C572.092896,646.170349 571.362732,646.117493 570.333618,646.643616 
M521.891724,847.620972 
	C521.293396,848.203308 520.649231,848.751648 520.157532,849.413208 
	C520.099426,849.491455 520.876221,850.190247 521.265869,850.601440 
	C521.638062,849.761230 522.010193,848.921082 521.891724,847.620972 
M496.105469,859.611877 
	C495.997314,860.273682 495.889160,860.935425 495.781036,861.597290 
	C496.351318,861.532288 496.921600,861.467285 497.491852,861.402283 
	C497.226898,860.716553 496.961945,860.030762 496.105469,859.611877 
M501.359406,826.674744 
	C502.039520,826.946533 502.719666,827.218323 503.399780,827.490112 
	C503.468964,826.920227 503.538147,826.350281 503.607330,825.780396 
	C502.947601,825.881653 502.287842,825.982971 501.359406,826.674744 
M524.352112,615.303345 
	C525.062805,615.651123 525.773438,615.998901 526.484131,616.346680 
	C526.571838,615.910095 526.659546,615.473572 526.747314,615.036987 
	C525.984070,614.911377 525.220764,614.785706 524.352112,615.303345 
M555.851929,818.411133 
	C555.153381,818.083191 554.454834,817.755249 553.756287,817.427368 
	C553.681274,817.846252 553.606323,818.265076 553.531311,818.683960 
	C554.272583,818.808960 555.013794,818.933899 555.851929,818.411133 
M531.155518,796.394348 
	C531.797546,796.654053 532.439575,796.913818 533.081604,797.173523 
	C533.174500,796.627258 533.267395,796.080933 533.360229,795.534668 
	C532.681030,795.615784 532.001831,795.696899 531.155518,796.394348 
M504.674835,780.640503 
	C504.946564,779.960388 505.218292,779.280273 505.489990,778.600098 
	C504.920135,778.530945 504.350250,778.461731 503.780396,778.392578 
	C503.881714,779.052307 503.983063,779.712097 504.674835,780.640503 
M539.640747,719.438477 
	C540.026855,718.556885 540.412903,717.675293 540.798950,716.793701 
	C540.380188,716.697815 539.961487,716.601990 539.542725,716.506104 
	C539.433594,717.323059 539.324524,718.140015 539.640747,719.438477 
M516.958801,827.641907 
	C516.437927,827.889526 515.916992,828.137207 515.396118,828.384827 
	C515.817200,828.801941 516.238281,829.218994 516.659363,829.636108 
	C516.903931,829.114380 517.148499,828.592651 516.958801,827.641907 
M516.509644,683.142395 
	C516.206848,683.569092 515.904114,683.995789 515.601318,684.422485 
	C516.049377,684.536133 516.497375,684.649780 516.945496,684.763367 
	C516.999084,684.263977 517.052734,683.764648 516.509644,683.142395 
M537.490356,837.857605 
	C537.793152,837.430908 538.095886,837.004211 538.398682,836.577454 
	C537.950623,836.463867 537.502625,836.350220 537.054565,836.236633 
	C537.000916,836.736023 536.947327,837.235352 537.490356,837.857605 
M544.723389,902.117737 
	C544.531494,901.575195 544.339539,901.032593 544.147583,900.489990 
	C543.869263,900.617065 543.590942,900.744141 543.312622,900.871277 
	C543.638000,901.429749 543.963379,901.988159 544.723389,902.117737 
M539.509644,686.142395 
	C539.206909,686.569092 538.904175,686.995728 538.601379,687.422363 
	C539.049438,687.536011 539.497437,687.649658 539.945496,687.763306 
	C539.999084,687.263977 540.052612,686.764648 539.509644,686.142395 
M538.566162,895.295532 
	C538.294495,895.010864 538.022766,894.726135 537.751099,894.441406 
	C537.633301,894.554077 537.406799,894.758484 537.413330,894.766174 
	C537.666809,895.066528 537.941650,895.348816 538.566162,895.295532 
M539.393372,593.201416 
	C539.786438,593.205627 540.179504,593.209839 540.572571,593.214111 
	C540.574097,593.050964 540.586609,592.746094 540.575562,592.745239 
	C540.184448,592.715027 539.791138,592.713196 539.393372,593.201416 
M520.201416,921.606567 
	C520.205627,921.213562 520.209839,920.820557 520.213989,920.427551 
	C520.050903,920.425964 519.746033,920.413452 519.745178,920.424438 
	C519.715027,920.815613 519.713318,921.208923 520.201416,921.606567 
M510.201508,917.606750 
	C510.205658,917.213623 510.209839,916.820557 510.214020,916.427429 
	C510.050873,916.425903 509.745911,916.413391 509.745087,916.424316 
	C509.714935,916.815552 509.713226,917.208984 510.201508,917.606750 
M563.201416,588.606628 
	C563.205627,588.213562 563.209839,587.820496 563.214111,587.427429 
	C563.050964,587.425903 562.746094,587.413391 562.745239,587.424438 
	C562.714966,587.815552 562.713196,588.208862 563.201416,588.606628 
M537.566223,906.295410 
	C537.294495,906.010742 537.022766,905.726013 536.750977,905.441223 
	C536.633179,905.553894 536.406738,905.758301 536.413269,905.765991 
	C536.666870,906.066284 536.941650,906.348633 537.566223,906.295410 
M530.433838,825.704468 
	C530.705566,825.989197 530.977295,826.273926 531.248962,826.558655 
	C531.366760,826.445984 531.593201,826.241577 531.586670,826.233887 
	C531.333130,825.933533 531.058350,825.651184 530.433838,825.704468 
M572.433716,847.704712 
	C572.705383,847.989380 572.977112,848.274048 573.248779,848.558655 
	C573.366638,848.446045 573.593079,848.241577 573.586609,848.234009 
	C573.333069,847.933716 573.058167,847.651428 572.433716,847.704712 
M533.606628,831.798584 
	C533.213623,831.794373 532.820557,831.790222 532.427551,831.786072 
	C532.425964,831.949158 532.413452,832.254028 532.424438,832.254883 
	C532.815613,832.285095 533.208923,832.286743 533.606628,831.798584 
z"/>
<path fill="#FFFFFF" opacity="1.000000" stroke="none" 
	d="
M342.015015,648.157593 
	C373.087585,634.094421 404.160126,620.031250 435.810852,606.182861 
	C439.355560,605.697693 442.322144,604.997681 445.288696,604.297607 
	C445.574677,604.802124 445.860657,605.306641 446.146606,605.811096 
	C444.687744,606.686707 443.228851,607.562317 440.826599,609.004150 
	C441.827087,610.813660 443.472778,613.171143 444.443268,615.779846 
	C445.016144,617.319824 444.594910,619.262329 444.482941,621.015015 
	C444.373413,622.728882 443.717865,624.488342 443.968384,626.125916 
	C444.342010,628.568237 445.917755,630.920532 445.920624,633.312378 
	C446.027100,721.807495 446.015564,810.302795 445.997925,898.798035 
	C445.997070,903.140808 447.134705,907.872742 442.032166,910.626343 
	C447.264069,913.695129 447.406525,916.278320 443.046814,919.694092 
	C442.281189,920.294067 441.651154,921.113342 441.093079,921.923950 
	C438.682617,925.425598 435.697632,927.146484 431.136505,927.108643 
	C406.306213,926.902649 381.473328,927.010681 356.641327,927.009338 
	C353.641510,927.009216 350.441986,927.648376 347.701843,926.802612 
	C345.282440,926.055969 343.276001,923.752014 341.336639,921.877625 
	C340.999634,921.551941 341.589752,919.442566 342.282562,919.012817 
	C346.069794,916.663147 344.087158,914.016296 343.075317,911.248230 
	C342.206787,908.872253 341.078949,906.375061 341.075500,903.930054 
	C340.968536,827.767578 340.962769,751.604980 341.084259,675.442627 
	C341.088287,672.917725 342.738434,670.431335 343.309387,667.857788 
	C343.643738,666.350830 344.011475,663.860107 343.242859,663.268250 
	C339.582764,660.450317 341.342041,658.311218 344.083069,656.020386 
	C343.472290,655.997986 342.861511,655.975586 342.250763,655.953186 
	C342.172180,653.354675 342.093628,650.756165 342.015015,648.157593 
z"/>
<path fill="#FFFFFF" opacity="1.000000" stroke="none" 
	d="
M211.040955,929.500916 
	C210.701569,928.386292 210.065613,927.271790 210.065125,926.157043 
	C210.033813,854.664001 210.067978,783.170959 210.014984,711.677979 
	C210.013031,709.038086 210.562210,707.536316 213.188049,706.355530 
	C247.641891,690.862244 282.034241,675.232178 316.447601,659.648743 
	C317.454071,659.192993 318.522034,658.872986 320.231934,658.242371 
	C320.231934,748.226868 320.231934,837.654663 319.653778,927.541382 
	C284.818939,928.004700 250.562195,927.987122 216.305740,928.076782 
	C214.549591,928.081360 212.795837,929.005127 211.040955,929.500916 
z"/>
<path fill="#FFFFFF" opacity="1.000000" stroke="none" 
	d="
M341.640076,648.180786 
	C342.093628,650.756165 342.172180,653.354675 342.250763,655.953186 
	C342.861511,655.975586 343.472290,655.997986 344.083069,656.020386 
	C341.342041,658.311218 339.582764,660.450317 343.242859,663.268250 
	C344.011475,663.860107 343.643738,666.350830 343.309387,667.857788 
	C342.738434,670.431335 341.088287,672.917725 341.084259,675.442627 
	C340.962769,751.604980 340.968536,827.767578 341.075500,903.930054 
	C341.078949,906.375061 342.206787,908.872253 343.075317,911.248230 
	C344.087158,914.016296 346.069794,916.663147 342.282562,919.012817 
	C341.589752,919.442566 340.999634,921.551941 341.336639,921.877625 
	C343.276001,923.752014 345.282440,926.055969 347.701843,926.802612 
	C350.441986,927.648376 353.641510,927.009216 356.641327,927.009338 
	C381.473328,927.010681 406.306213,926.902649 431.136505,927.108643 
	C435.697632,927.146484 438.682617,925.425598 441.093079,921.923950 
	C441.651154,921.113342 442.281189,920.294067 443.046814,919.694092 
	C447.406525,916.278320 447.264069,913.695129 442.032166,910.626343 
	C447.134705,907.872742 445.997070,903.140808 445.997925,898.798035 
	C446.015564,810.302795 446.027100,721.807495 445.920624,633.312378 
	C445.917755,630.920532 444.342010,628.568237 443.968384,626.125916 
	C443.717865,624.488342 444.373413,622.728882 444.482941,621.015015 
	C444.594910,619.262329 445.016144,617.319824 444.443268,615.779846 
	C443.472778,613.171143 441.827087,610.813660 440.826599,609.004150 
	C443.228851,607.562317 444.687744,606.686707 446.146606,605.811096 
	C445.860657,605.306641 445.574677,604.802124 445.288696,604.297607 
	C442.322144,604.997681 439.355560,605.697693 436.174561,606.143799 
	C439.816071,604.025146 443.672058,602.160278 448.055573,600.040283 
	C448.055573,710.177307 448.055573,819.823975 448.055573,929.715454 
	C411.652649,929.715454 375.386230,929.715454 338.663788,929.715454 
	C338.538025,928.494934 338.296753,927.245911 338.296631,925.996887 
	C338.289459,835.209106 338.307465,744.421326 338.279968,653.633545 
	C338.279205,651.150330 338.318726,648.946716 341.640076,648.180786 
M446.254028,611.807190 
	C446.377716,611.970825 446.501404,612.134399 446.625122,612.298035 
	C446.598541,612.071716 446.571960,611.845337 446.254028,611.807190 
z"/>
<path fill="#FFFFFF" opacity="1.000000" stroke="none" 
	d="
M152.640717,598.298340 
	C153.345459,600.505676 153.934097,602.791748 153.938797,605.078918 
	C153.998779,634.243958 153.976120,663.409241 153.969070,692.574402 
	C153.968750,693.906799 154.285675,695.386292 153.823410,696.545471 
	C152.101929,700.862427 154.855103,700.711243 157.849670,700.901001 
	C156.034363,702.205750 154.017456,703.263489 151.476395,704.596130 
	C151.324097,702.834290 151.126587,701.610535 151.125916,700.386658 
	C151.108414,668.066345 151.094116,635.745972 151.159241,603.425842 
	C151.162628,601.742310 151.872345,600.060303 152.640717,598.298340 
z"/>
<path fill="#FFFFFF" opacity="1.000000" stroke="none" 
	d="
M211.494156,929.615356 
	C212.795837,929.005127 214.549591,928.081360 216.305740,928.076782 
	C250.562195,927.987122 284.818939,928.004700 319.545258,927.999023 
	C318.804047,928.585693 317.594391,929.684509 316.382202,929.687317 
	C281.570740,929.768860 246.759018,929.740479 211.494156,929.615356 
z"/>
<path fill="#FFFFFF" opacity="1.000000" stroke="none" 
	d="
M501.617035,575.966064 
	C503.351196,576.396606 504.768768,577.302002 506.076508,577.164246 
	C507.392242,577.025696 508.598663,575.849548 509.852966,575.128113 
	C510.274780,575.497803 510.696625,575.867554 511.118439,576.237244 
	C510.076477,577.448669 509.164551,578.811646 507.965668,579.840088 
	C505.423462,582.020874 502.771576,584.080688 500.086365,586.085205 
	C498.475159,587.288025 495.914337,589.603455 495.169769,589.147888 
	C492.657196,587.610535 487.991211,586.944885 489.991730,581.632690 
	C493.750671,579.520020 497.501465,577.751770 501.617035,575.966064 
z"/>
<path fill="#FFFFFF" opacity="1.000000" stroke="none" 
	d="
M476.946777,910.028015 
	C475.516663,913.521423 474.087921,916.631470 472.659210,919.741455 
	C472.242554,919.622009 471.825867,919.502563 471.409210,919.383179 
	C471.684174,918.126953 472.110748,916.880615 472.192902,915.611938 
	C472.281067,914.250000 472.587311,912.211853 471.856689,911.607605 
	C468.819458,909.096069 468.964935,905.896545 468.976715,902.525391 
	C469.030884,887.035767 468.913910,871.545166 469.045502,856.056458 
	C469.093262,850.434753 469.958069,844.815491 469.921936,839.198486 
	C469.870636,831.227234 469.183411,823.260986 469.081390,815.288574 
	C469.046417,812.555664 470.027069,809.820801 470.405975,807.067871 
	C470.674194,805.119141 470.991364,803.109741 470.793365,801.178040 
	C470.363007,796.979492 469.088501,792.814514 469.079803,788.633850 
	C468.961273,731.671692 468.976593,674.709106 469.078796,617.746887 
	C469.083282,615.248108 470.523102,612.780640 470.782898,610.246155 
	C471.094452,607.206787 470.856445,604.111084 470.856445,600.744751 
	C473.918030,600.273254 476.575348,602.541870 475.861176,606.642212 
	C475.350708,609.572815 474.709686,612.527832 473.684509,615.308899 
	C472.537415,618.420776 472.885193,621.027466 473.816620,624.260376 
	C474.865662,627.901306 474.310944,632.180115 473.744659,636.078430 
	C471.856079,649.079346 469.990295,662.031433 474.149078,674.950623 
	C474.352570,675.582764 474.786041,676.224548 474.746552,676.838379 
	C474.276093,684.154846 473.624146,691.461182 473.252319,698.781921 
	C472.986328,704.018250 473.139709,709.274414 472.985046,714.518127 
	C472.708801,723.884644 471.957245,733.254883 472.112396,742.611877 
	C472.292084,753.449036 473.423676,764.267639 473.767761,775.106140 
	C473.940369,780.541626 473.118225,786.002197 473.080078,791.453796 
	C473.064606,793.662903 474.143921,795.858948 474.353546,798.095764 
	C474.579285,800.504456 474.536469,802.969116 474.318481,805.382935 
	C473.676086,812.496704 469.288147,819.192322 472.003906,826.688721 
	C474.968109,834.870972 475.170135,843.098572 472.383423,851.387573 
	C472.142761,852.103333 472.084625,853.248108 472.489960,853.756226 
	C476.360626,858.608276 473.863403,863.963196 473.783417,869.092224 
	C473.610077,880.211060 473.039368,891.330811 473.196136,902.442200 
	C473.230255,904.860107 475.635132,907.244690 476.946777,910.028015 
z"/>
<path fill="#FFFFFF" opacity="1.000000" stroke="none" 
	d="
M573.928101,559.704834 
	C574.729187,564.602844 577.143921,569.434265 572.687134,573.660156 
	C572.113770,574.203857 572.611877,576.043762 572.849365,577.236267 
	C573.180664,578.899780 573.733948,580.519104 574.205322,582.204346 
	C570.473999,582.826172 567.479553,583.325256 565.096680,583.722412 
	C564.374390,579.741943 563.759155,576.351257 563.015137,572.250916 
	C563.468018,571.912170 564.726074,570.971130 565.922302,570.076355 
	C562.516357,561.892517 560.409302,560.794861 552.056519,561.712585 
	C550.189758,561.917725 548.179688,560.818787 545.044434,560.014709 
	C550.857178,554.324707 559.730591,561.467102 563.225037,552.170288 
	C565.464966,556.425537 567.229492,559.777832 568.994080,563.130066 
	C569.682373,563.356384 570.370605,563.582703 571.058838,563.809021 
	C571.914551,562.364685 572.770203,560.920288 573.928101,559.704834 
z"/>
<path fill="#FFFFFF" opacity="1.000000" stroke="none" 
	d="
M553.577576,926.999390 
	C549.689270,927.001343 546.247253,927.001343 542.779968,927.001343 
	C541.813538,919.981384 547.540833,919.225037 551.373474,917.178711 
	C553.556641,916.013062 556.750977,913.167847 558.728149,917.790405 
	C560.216980,921.270935 557.879517,925.713013 553.577576,926.999390 
z"/>
<path fill="#FFFFFF" opacity="1.000000" stroke="none" 
	d="
M574.000000,910.066040 
	C574.383240,914.493530 573.821838,917.337036 568.717773,915.152283 
	C567.845642,914.778931 566.537842,915.216309 565.824646,914.717163 
	C563.501465,913.091248 561.360657,911.204834 559.149597,909.418701 
	C561.713257,908.279175 564.203979,906.905090 566.864563,906.077271 
	C568.842346,905.461914 571.040466,905.554871 573.640076,905.279358 
	C573.765869,906.796631 573.882935,908.208313 574.000000,910.066040 
z"/>
<path fill="#FFFFFF" opacity="1.000000" stroke="none" 
	d="
M532.194458,568.200684 
	C533.688782,566.231079 534.892151,564.499146 536.344482,562.408875 
	C539.328674,568.429688 536.769287,572.837158 530.453613,573.895020 
	C529.005310,574.137634 527.420654,574.251465 526.023499,573.911621 
	C524.760254,573.604309 523.484802,572.768921 522.584595,571.816772 
	C522.194946,571.404663 522.570007,569.418335 522.880676,569.344910 
	C524.130249,569.049805 525.499878,569.321838 526.807556,569.198364 
	C528.514893,569.037109 530.205627,568.699890 532.194458,568.200684 
z"/>
<path fill="#FFFFFF" opacity="1.000000" stroke="none" 
	d="
M480.063080,598.000000 
	C476.377258,596.751770 473.121796,595.503540 469.866364,594.255310 
	C470.010590,593.659912 470.154816,593.064453 470.299042,592.468994 
	C474.198517,592.917480 479.853333,598.803894 480.404938,588.880981 
	C480.820923,588.953979 481.236938,589.026978 481.652954,589.099976 
	C482.712769,591.606445 483.772614,594.112854 484.832397,596.619263 
	C483.386078,597.079468 481.939758,597.539734 480.063080,598.000000 
z"/>
<path fill="#FFFFFF" opacity="1.000000" stroke="none" 
	d="
M551.976746,785.996094 
	C556.998169,783.829346 559.471619,787.936462 562.932129,789.151306 
	C562.893921,789.588135 562.855713,790.025024 562.817444,790.461914 
	C561.597351,790.461914 560.191406,790.862976 559.186829,790.397644 
	C551.955078,787.047791 549.012329,787.612732 544.901245,793.443054 
	C543.926025,789.260864 546.230469,786.688171 551.976746,785.996094 
z"/>
<path fill="#FFFFFF" opacity="1.000000" stroke="none" 
	d="
M477.659180,924.557617 
	C478.578003,924.146240 479.225952,923.855164 479.846832,923.904541 
	C481.515106,924.037292 483.171814,924.315491 484.833099,924.536011 
	C484.413239,925.299622 483.910522,926.753967 483.586945,926.715149 
	C481.433868,926.456909 478.377533,928.806396 477.659180,924.557617 
z"/>
<path fill="#FFFFFF" opacity="1.000000" stroke="none" 
	d="
M564.980591,852.692017 
	C564.622253,851.107788 564.609863,849.540527 564.597412,847.973267 
	C566.086975,848.330811 567.576477,848.688416 569.066040,849.046021 
	C569.019104,849.579224 568.972229,850.112427 568.925293,850.645630 
	C567.725708,851.333374 566.526062,852.021118 564.980591,852.692017 
z"/>
<path fill="#FFFFFF" opacity="1.000000" stroke="none" 
	d="
M542.018311,835.890503 
	C541.461670,834.339966 541.224426,832.999451 540.987122,831.658875 
	C541.518494,831.373230 542.049805,831.087524 542.581177,830.801880 
	C543.680298,832.363403 544.779480,833.924927 545.878662,835.486450 
	C544.698364,835.691162 543.518005,835.895813 542.018311,835.890503 
z"/>
<path fill="#FFFFFF" opacity="1.000000" stroke="none" 
	d="
M529.833496,804.726807 
	C528.745911,804.746582 527.938660,804.545044 527.131470,804.343567 
	C527.797913,802.616760 528.464417,800.889954 529.360168,798.568909 
	C531.711243,800.983154 533.174072,802.576965 529.833496,804.726807 
z"/>
<path fill="#FFFFFF" opacity="1.000000" stroke="none" 
	d="
M534.419189,730.511780 
	C534.741089,732.290894 534.769836,733.849731 534.798584,735.408630 
	C533.996948,735.116699 533.195312,734.824829 532.393677,734.532898 
	C532.971130,733.119141 533.548645,731.705322 534.419189,730.511780 
z"/>
<path fill="#FFFFFF" opacity="1.000000" stroke="none" 
	d="
M533.745605,615.481567 
	C534.605469,616.794373 535.122803,617.989441 535.640137,619.184448 
	C534.762756,619.219116 533.885315,619.253845 533.007935,619.288513 
	C533.139709,617.980286 533.271423,616.672058 533.745605,615.481567 
z"/>
<path fill="#FFFFFF" opacity="1.000000" stroke="none" 
	d="
M537.115417,808.743164 
	C536.998413,807.241516 537.232727,805.843872 537.467041,804.446228 
	C538.158264,804.744568 538.849487,805.042908 539.540710,805.341248 
	C538.849365,806.509827 538.158020,807.678467 537.115417,808.743164 
z"/>
<path fill="#FFFFFF" opacity="1.000000" stroke="none" 
	d="
M543.147339,615.469482 
	C543.249817,616.981262 543.016602,618.381104 542.783325,619.781006 
	C542.075867,619.498108 541.368469,619.215210 540.661011,618.932251 
	C541.377869,617.740662 542.094727,616.549133 543.147339,615.469482 
z"/>
<path fill="#FFFFFF" opacity="1.000000" stroke="none" 
	d="
M518.864258,861.971558 
	C519.015686,863.097961 518.972046,863.928101 518.928406,864.758301 
	C517.648987,864.079346 516.369507,863.400391 515.090088,862.721436 
	C515.224609,862.249329 515.359192,861.777222 515.493713,861.305115 
	C516.552246,861.428528 517.610779,861.551941 518.864258,861.971558 
z"/>
<path fill="#FFFFFF" opacity="1.000000" stroke="none" 
	d="
M544.459045,605.577393 
	C544.118408,604.347656 544.112915,603.293884 544.107422,602.240173 
	C544.965393,602.479126 545.823425,602.718079 546.681396,602.956970 
	C546.052307,603.889099 545.423279,604.821228 544.459045,605.577393 
z"/>
<path fill="#FFFFFF" opacity="1.000000" stroke="none" 
	d="
M483.502380,623.682007 
	C483.083832,624.945679 482.424957,625.926453 481.766113,626.907227 
	C481.236816,626.410400 480.707458,625.913574 480.178101,625.416748 
	C481.206085,624.744141 482.234070,624.071533 483.502380,623.682007 
z"/>
<path fill="#FFFFFF" opacity="1.000000" stroke="none" 
	d="
M533.579834,603.438171 
	C532.984375,604.368286 532.215515,604.977722 531.446716,605.587158 
	C531.045105,604.771973 530.643433,603.956726 530.241821,603.141541 
	C531.296692,603.133545 532.351624,603.125549 533.579834,603.438171 
z"/>
<path fill="#FFFFFF" opacity="1.000000" stroke="none" 
	d="
M540.568481,813.417725 
	C541.067749,812.162720 541.820007,811.165466 542.572266,810.168274 
	C542.993103,810.595215 543.413879,811.022156 543.834656,811.449097 
	C542.830261,812.191223 541.825928,812.933350 540.568481,813.417725 
z"/>
<path fill="#FFFFFF" opacity="1.000000" stroke="none" 
	d="
M494.958038,853.299316 
	C496.838837,856.615601 495.326691,857.060547 491.436005,856.500061 
	C492.888855,854.983093 493.751068,854.082825 494.958038,853.299316 
z"/>
<path fill="#FFFFFF" opacity="1.000000" stroke="none" 
	d="
M521.723999,577.017639 
	C524.896606,577.943420 523.867493,579.110718 522.018372,579.547424 
	C520.971130,579.794739 519.643982,578.856628 517.082214,577.994568 
	C519.404724,577.459167 520.386536,577.232788 521.723999,577.017639 
z"/>
<path fill="#FFFFFF" opacity="1.000000" stroke="none" 
	d="
M567.046997,816.744629 
	C566.797180,817.869812 566.288147,818.759766 565.779053,819.649719 
	C565.232056,818.923950 564.684998,818.198120 564.137939,817.472351 
	C565.021179,817.151367 565.904480,816.830383 567.046997,816.744629 
z"/>
<path fill="#FFFFFF" opacity="1.000000" stroke="none" 
	d="
M490.448547,611.114319 
	C491.720398,611.414612 492.645538,611.784912 493.570740,612.155273 
	C492.909821,612.727295 492.248901,613.299316 491.588013,613.871277 
	C491.092621,612.975647 490.597260,612.080017 490.448547,611.114319 
z"/>
<path fill="#FFFFFF" opacity="1.000000" stroke="none" 
	d="
M506.197723,917.378784 
	C505.371429,918.719543 504.278473,919.864136 503.185516,921.008728 
	C502.772156,920.489746 502.358795,919.970703 501.945435,919.451721 
	C503.273987,918.695312 504.602539,917.938965 506.197723,917.378784 
z"/>
<path fill="#FFFFFF" opacity="1.000000" stroke="none" 
	d="
M532.639343,755.479858 
	C533.582764,756.441101 534.216003,757.271301 535.051880,758.367126 
	C531.050110,758.171875 531.050110,758.171875 532.639343,755.479858 
z"/>
<path fill="#FFFFFF" opacity="1.000000" stroke="none" 
	d="
M526.541748,848.645264 
	C527.483704,849.093628 528.172546,849.809387 528.861389,850.525146 
	C528.295898,850.922180 527.730469,851.319153 527.164978,851.716187 
	C526.872864,850.781677 526.580811,849.847229 526.541748,848.645264 
z"/>
<path fill="#FFFFFF" opacity="1.000000" stroke="none" 
	d="
M535.403320,782.559937 
	C535.362793,783.789307 535.063965,784.776611 534.765198,785.763916 
	C534.133911,785.470154 533.502625,785.176453 532.871338,784.882690 
	C533.629211,784.027710 534.387146,783.172791 535.403320,782.559937 
z"/>
<path fill="#FFFFFF" opacity="1.000000" stroke="none" 
	d="
M485.953339,881.774841 
	C487.070312,881.817017 487.931610,882.105530 488.792908,882.393921 
	C488.299530,882.898071 487.806183,883.402161 487.312836,883.906250 
	C486.774475,883.277893 486.236084,882.649536 485.953339,881.774841 
z"/>
<path fill="#FFFFFF" opacity="1.000000" stroke="none" 
	d="
M566.684387,804.523743 
	C567.263062,805.578430 567.540894,806.480591 567.818726,807.382690 
	C567.171814,807.423828 566.524902,807.464905 565.877991,807.505981 
	C566.046509,806.461060 566.215027,805.416077 566.684387,804.523743 
z"/>
<path fill="#FFFFFF" opacity="1.000000" stroke="none" 
	d="
M532.988403,889.677979 
	C532.324707,888.951782 531.998169,888.226501 531.671692,887.501221 
	C532.547119,887.501465 533.422607,887.501709 534.298035,887.501953 
	C533.973877,888.227600 533.649719,888.953186 532.988403,889.677979 
z"/>
<path fill="#FFFFFF" opacity="1.000000" stroke="none" 
	d="
M570.483093,646.354126 
	C571.362732,646.117493 572.092896,646.170349 572.822998,646.223267 
	C572.522461,646.998657 572.221985,647.774048 571.921509,648.549438 
	C571.392212,647.914124 570.862915,647.278870 570.483093,646.354126 
z"/>
<path fill="#FFFFFF" opacity="1.000000" stroke="none" 
	d="
M522.137024,847.850952 
	C522.010193,848.921082 521.638062,849.761230 521.265869,850.601440 
	C520.876221,850.190247 520.099426,849.491455 520.157532,849.413208 
	C520.649231,848.751648 521.293396,848.203308 522.137024,847.850952 
z"/>
<path fill="#FFFFFF" opacity="1.000000" stroke="none" 
	d="
M496.401245,859.478455 
	C496.961945,860.030762 497.226898,860.716553 497.491852,861.402344 
	C496.921600,861.467285 496.351318,861.532288 495.781036,861.597290 
	C495.889160,860.935425 495.997314,860.273682 496.401245,859.478455 
z"/>
<path fill="#FFFFFF" opacity="1.000000" stroke="none" 
	d="
M501.493774,826.379517 
	C502.287842,825.982971 502.947601,825.881653 503.607330,825.780396 
	C503.538147,826.350281 503.468964,826.920227 503.399780,827.490112 
	C502.719666,827.218323 502.039520,826.946533 501.493774,826.379517 
z"/>
<path fill="#FFFFFF" opacity="1.000000" stroke="none" 
	d="
M524.404785,614.981689 
	C525.220764,614.785706 525.984070,614.911377 526.747314,615.036987 
	C526.659546,615.473572 526.571838,615.910095 526.484131,616.346680 
	C525.773438,615.998901 525.062805,615.651123 524.404785,614.981689 
z"/>
<path fill="#FFFFFF" opacity="1.000000" stroke="none" 
	d="
M555.803467,818.734985 
	C555.013794,818.933899 554.272583,818.808960 553.531311,818.683960 
	C553.606323,818.265076 553.681274,817.846252 553.756287,817.427368 
	C554.454834,817.755249 555.153381,818.083191 555.803467,818.734985 
z"/>
<path fill="#FFFFFF" opacity="1.000000" stroke="none" 
	d="
M531.239075,796.086182 
	C532.001831,795.696899 532.681030,795.615784 533.360229,795.534668 
	C533.267395,796.080933 533.174500,796.627258 533.081604,797.173584 
	C532.439575,796.913818 531.797546,796.654053 531.239075,796.086182 
z"/>
<path fill="#FFFFFF" opacity="1.000000" stroke="none" 
	d="
M504.379608,780.506165 
	C503.983063,779.712097 503.881714,779.052307 503.780396,778.392578 
	C504.350250,778.461731 504.920135,778.530945 505.489990,778.600098 
	C505.218292,779.280273 504.946564,779.960388 504.379608,780.506165 
z"/>
<path fill="#FFFFFF" opacity="1.000000" stroke="none" 
	d="
M539.428101,719.197754 
	C539.324524,718.140015 539.433594,717.323059 539.542725,716.506104 
	C539.961487,716.601990 540.380188,716.697815 540.798950,716.793701 
	C540.412903,717.675293 540.026855,718.556885 539.428101,719.197754 
z"/>
<path fill="#FFFFFF" opacity="1.000000" stroke="none" 
	d="
M517.175903,827.856445 
	C517.148499,828.592651 516.903931,829.114380 516.659363,829.636108 
	C516.238281,829.218994 515.817200,828.801941 515.396118,828.384827 
	C515.916992,828.137207 516.437927,827.889526 517.175903,827.856445 
z"/>
<path fill="#FFFFFF" opacity="1.000000" stroke="none" 
	d="
M516.807983,683.203857 
	C517.052734,683.764648 516.999084,684.263977 516.945435,684.763367 
	C516.497375,684.649780 516.049377,684.536133 515.601318,684.422485 
	C515.904114,683.995789 516.206848,683.569092 516.807983,683.203857 
z"/>
<path fill="#FFFFFF" opacity="1.000000" stroke="none" 
	d="
M537.192017,837.796143 
	C536.947327,837.235352 537.000916,836.736023 537.054565,836.236572 
	C537.502625,836.350220 537.950623,836.463867 538.398682,836.577515 
	C538.095886,837.004211 537.793152,837.430908 537.192017,837.796143 
z"/>
<path fill="#FFFFFF" opacity="1.000000" stroke="none" 
	d="
M544.506104,902.332153 
	C543.963379,901.988159 543.638000,901.429749 543.312622,900.871216 
	C543.590942,900.744141 543.869263,900.617065 544.147583,900.489990 
	C544.339539,901.032593 544.531494,901.575195 544.506104,902.332153 
z"/>
<path fill="#FFFFFF" opacity="1.000000" stroke="none" 
	d="
M539.807861,686.203857 
	C540.052612,686.764648 539.999084,687.263977 539.945496,687.763306 
	C539.497437,687.649658 539.049438,687.536011 538.601379,687.422363 
	C538.904175,686.995728 539.206909,686.569092 539.807861,686.203857 
z"/>
<path fill="#FFFFFF" opacity="1.000000" stroke="none" 
	d="
M538.389893,895.464478 
	C537.941650,895.348816 537.666809,895.066528 537.413330,894.766174 
	C537.406799,894.758484 537.633301,894.554077 537.751099,894.441406 
	C538.022766,894.726135 538.294495,895.010864 538.389893,895.464478 
z"/>
<path fill="#FFFFFF" opacity="1.000000" stroke="none" 
	d="
M539.395752,592.954468 
	C539.791138,592.713196 540.184448,592.715027 540.575562,592.745239 
	C540.586609,592.746094 540.574097,593.050964 540.572571,593.214111 
	C540.179504,593.209839 539.786438,593.205627 539.395752,592.954468 
z"/>
<path fill="#FFFFFF" opacity="1.000000" stroke="none" 
	d="
M519.954468,921.604248 
	C519.713318,921.208923 519.715027,920.815613 519.745178,920.424438 
	C519.746033,920.413452 520.050903,920.425964 520.213989,920.427551 
	C520.209839,920.820557 520.205627,921.213562 519.954468,921.604248 
z"/>
<path fill="#FFFFFF" opacity="1.000000" stroke="none" 
	d="
M509.954529,917.604431 
	C509.713226,917.208984 509.714935,916.815552 509.745087,916.424316 
	C509.745911,916.413391 510.050873,916.425903 510.214020,916.427429 
	C510.209839,916.820557 510.205658,917.213623 509.954529,917.604431 
z"/>
<path fill="#FFFFFF" opacity="1.000000" stroke="none" 
	d="
M562.954468,588.604248 
	C562.713196,588.208862 562.714966,587.815552 562.745239,587.424438 
	C562.746094,587.413391 563.050964,587.425903 563.214111,587.427429 
	C563.209839,587.820496 563.205627,588.213562 562.954468,588.604248 
z"/>
<path fill="#FFFFFF" opacity="1.000000" stroke="none" 
	d="
M537.389954,906.464355 
	C536.941650,906.348633 536.666870,906.066284 536.413269,905.765991 
	C536.406738,905.758301 536.633179,905.553894 536.750977,905.441284 
	C537.022766,905.726013 537.294495,906.010742 537.389954,906.464355 
z"/>
<path fill="#FFFFFF" opacity="1.000000" stroke="none" 
	d="
M530.610107,825.535461 
	C531.058350,825.651184 531.333130,825.933533 531.586670,826.233887 
	C531.593201,826.241577 531.366760,826.445984 531.248962,826.558655 
	C530.977295,826.273926 530.705566,825.989197 530.610107,825.535461 
z"/>
<path fill="#FFFFFF" opacity="1.000000" stroke="none" 
	d="
M572.609924,847.535767 
	C573.058167,847.651428 573.333069,847.933716 573.586609,848.234009 
	C573.593079,848.241577 573.366638,848.446045 573.248779,848.558716 
	C572.977112,848.274048 572.705383,847.989380 572.609924,847.535767 
z"/>
<path fill="#FFFFFF" opacity="1.000000" stroke="none" 
	d="
M533.604309,832.045532 
	C533.208923,832.286743 532.815613,832.285095 532.424438,832.254883 
	C532.413452,832.254028 532.425964,831.949158 532.427551,831.786072 
	C532.820557,831.790222 533.213623,831.794373 533.604309,832.045532 
z"/>
<path fill="#FFFFFF" opacity="1.000000" stroke="none" 
	d="
M446.399719,611.713135 
	C446.571960,611.845337 446.598541,612.071716 446.625122,612.298035 
	C446.501404,612.134399 446.377716,611.970825 446.399719,611.713135 
z"/>
</svg>